<mxfile host="app.diagrams.net" agent="Mozilla/5.0 (Windows NT 10.0; Win64; x64) AppleWebKit/537.36 (KHTML, like Gecko) Chrome/133.0.0.0 Safari/537.36 OPR/118.0.0.0" version="26.2.14">
  <diagram name="Page-1" id="e7e014a7-5840-1c2e-5031-d8a46d1fe8dd">
    <mxGraphModel dx="1039" dy="623" grid="0" gridSize="10" guides="1" tooltips="1" connect="1" arrows="1" fold="1" page="1" pageScale="1" pageWidth="1169" pageHeight="826" background="none" math="0" shadow="0">
      <root>
        <mxCell id="0" />
        <mxCell id="1" parent="0" />
        <mxCell id="Ec-df3vdIZZ4H335Q0Bi-41" value="Visiteur / Participant" style="swimlane;whiteSpace=wrap;movable=1;resizable=1;rotatable=1;deletable=1;editable=1;locked=0;connectable=1;" vertex="1" parent="1">
          <mxGeometry x="135" y="58" width="262.5" height="525" as="geometry" />
        </mxCell>
        <mxCell id="Ec-df3vdIZZ4H335Q0Bi-42" value="" style="ellipse;shape=startState;fillColor=#000000;strokeColor=#000000;" vertex="1" parent="Ec-df3vdIZZ4H335Q0Bi-41">
          <mxGeometry x="100" y="28" width="30" height="30" as="geometry" />
        </mxCell>
        <mxCell id="Ec-df3vdIZZ4H335Q0Bi-43" value="" style="edgeStyle=elbowEdgeStyle;elbow=horizontal;verticalAlign=bottom;endArrow=open;endSize=8;strokeColor=#000000;endFill=1;rounded=0" edge="1" parent="Ec-df3vdIZZ4H335Q0Bi-41" source="Ec-df3vdIZZ4H335Q0Bi-42">
          <mxGeometry x="100" y="40" as="geometry">
            <mxPoint x="115.5" y="98" as="targetPoint" />
          </mxGeometry>
        </mxCell>
        <mxCell id="Ec-df3vdIZZ4H335Q0Bi-44" style="edgeStyle=orthogonalEdgeStyle;rounded=0;orthogonalLoop=1;jettySize=auto;html=1;" edge="1" parent="Ec-df3vdIZZ4H335Q0Bi-41" source="Ec-df3vdIZZ4H335Q0Bi-45">
          <mxGeometry relative="1" as="geometry">
            <mxPoint x="364.41656494140625" y="119" as="targetPoint" />
          </mxGeometry>
        </mxCell>
        <mxCell id="Ec-df3vdIZZ4H335Q0Bi-45" value="" style="rounded=1;whiteSpace=wrap;html=1;" vertex="1" parent="Ec-df3vdIZZ4H335Q0Bi-41">
          <mxGeometry x="55" y="100" width="120" height="38" as="geometry" />
        </mxCell>
        <mxCell id="Ec-df3vdIZZ4H335Q0Bi-46" value="&lt;b&gt;Demande de reservation&lt;/b&gt;" style="text;html=1;align=center;verticalAlign=middle;whiteSpace=wrap;rounded=0;" vertex="1" parent="Ec-df3vdIZZ4H335Q0Bi-41">
          <mxGeometry x="65" y="104" width="80" height="30" as="geometry" />
        </mxCell>
        <mxCell id="Ec-df3vdIZZ4H335Q0Bi-75" value="" style="rounded=1;whiteSpace=wrap;html=1;" vertex="1" parent="Ec-df3vdIZZ4H335Q0Bi-41">
          <mxGeometry x="58" y="158" width="120" height="38" as="geometry" />
        </mxCell>
        <mxCell id="Ec-df3vdIZZ4H335Q0Bi-80" style="edgeStyle=orthogonalEdgeStyle;rounded=0;orthogonalLoop=1;jettySize=auto;html=1;" edge="1" parent="Ec-df3vdIZZ4H335Q0Bi-41">
          <mxGeometry relative="1" as="geometry">
            <mxPoint x="108" y="221.72655614217126" as="targetPoint" />
            <mxPoint x="108" y="196" as="sourcePoint" />
          </mxGeometry>
        </mxCell>
        <mxCell id="Ec-df3vdIZZ4H335Q0Bi-76" value="&lt;b&gt;Remplir le formulaire&amp;nbsp;&lt;/b&gt;" style="text;html=1;align=center;verticalAlign=middle;whiteSpace=wrap;rounded=0;" vertex="1" parent="Ec-df3vdIZZ4H335Q0Bi-41">
          <mxGeometry x="75" y="162" width="80" height="30" as="geometry" />
        </mxCell>
        <mxCell id="Ec-df3vdIZZ4H335Q0Bi-81" value="" style="rounded=1;whiteSpace=wrap;html=1;" vertex="1" parent="Ec-df3vdIZZ4H335Q0Bi-41">
          <mxGeometry x="58" y="221" width="120" height="38" as="geometry" />
        </mxCell>
        <mxCell id="Ec-df3vdIZZ4H335Q0Bi-82" value="&lt;b&gt;Soumettre le formulaire&lt;/b&gt;" style="text;html=1;align=center;verticalAlign=middle;whiteSpace=wrap;rounded=0;" vertex="1" parent="Ec-df3vdIZZ4H335Q0Bi-41">
          <mxGeometry x="68" y="225" width="80" height="30" as="geometry" />
        </mxCell>
        <mxCell id="Ec-df3vdIZZ4H335Q0Bi-47" value="Système de paiement" style="swimlane;whiteSpace=wrap;movable=1;resizable=1;rotatable=1;deletable=1;editable=1;locked=0;connectable=1;" vertex="1" parent="1">
          <mxGeometry x="397.5" y="58" width="377.5" height="525" as="geometry" />
        </mxCell>
        <mxCell id="Ec-df3vdIZZ4H335Q0Bi-48" value="" style="rounded=1;whiteSpace=wrap;html=1;" vertex="1" parent="Ec-df3vdIZZ4H335Q0Bi-47">
          <mxGeometry x="98.5" y="172" width="138.5" height="38" as="geometry" />
        </mxCell>
        <mxCell id="Ec-df3vdIZZ4H335Q0Bi-49" style="edgeStyle=orthogonalEdgeStyle;rounded=0;orthogonalLoop=1;jettySize=auto;html=1;" edge="1" parent="Ec-df3vdIZZ4H335Q0Bi-47" source="Ec-df3vdIZZ4H335Q0Bi-50">
          <mxGeometry relative="1" as="geometry">
            <mxPoint x="165.75" y="241.00521087646484" as="targetPoint" />
          </mxGeometry>
        </mxCell>
        <mxCell id="Ec-df3vdIZZ4H335Q0Bi-50" value="&lt;b&gt;Vérifier les informations&lt;/b&gt;" style="text;html=1;align=center;verticalAlign=middle;whiteSpace=wrap;rounded=0;" vertex="1" parent="Ec-df3vdIZZ4H335Q0Bi-47">
          <mxGeometry x="103.5" y="177" width="124.5" height="30" as="geometry" />
        </mxCell>
        <mxCell id="Ec-df3vdIZZ4H335Q0Bi-51" style="edgeStyle=orthogonalEdgeStyle;rounded=0;orthogonalLoop=1;jettySize=auto;html=1;entryX=0.426;entryY=-0.027;entryDx=0;entryDy=0;entryPerimeter=0;" edge="1" parent="Ec-df3vdIZZ4H335Q0Bi-47" source="Ec-df3vdIZZ4H335Q0Bi-52" target="Ec-df3vdIZZ4H335Q0Bi-58">
          <mxGeometry relative="1" as="geometry">
            <mxPoint x="71.083251953125" y="292.67186737060547" as="targetPoint" />
          </mxGeometry>
        </mxCell>
        <mxCell id="Ec-df3vdIZZ4H335Q0Bi-52" value="" style="rhombus;whiteSpace=wrap;html=1;" vertex="1" parent="Ec-df3vdIZZ4H335Q0Bi-47">
          <mxGeometry x="142.88" y="242" width="45.75" height="43" as="geometry" />
        </mxCell>
        <mxCell id="Ec-df3vdIZZ4H335Q0Bi-53" value="" style="rounded=1;whiteSpace=wrap;html=1;" vertex="1" parent="Ec-df3vdIZZ4H335Q0Bi-47">
          <mxGeometry x="194" y="292" width="108.5" height="31" as="geometry" />
        </mxCell>
        <mxCell id="Ec-df3vdIZZ4H335Q0Bi-54" style="edgeStyle=orthogonalEdgeStyle;rounded=0;orthogonalLoop=1;jettySize=auto;html=1;entryX=0.572;entryY=0.013;entryDx=0;entryDy=0;entryPerimeter=0;" edge="1" parent="Ec-df3vdIZZ4H335Q0Bi-47" source="Ec-df3vdIZZ4H335Q0Bi-52">
          <mxGeometry relative="1" as="geometry">
            <mxPoint x="256.0619999999999" y="293.403" as="targetPoint" />
          </mxGeometry>
        </mxCell>
        <mxCell id="Ec-df3vdIZZ4H335Q0Bi-55" value="&lt;span style=&quot;font-size: 11px;&quot;&gt;Message d&#39;erreur&lt;/span&gt;" style="text;html=1;align=center;verticalAlign=middle;whiteSpace=wrap;rounded=0;" vertex="1" parent="Ec-df3vdIZZ4H335Q0Bi-47">
          <mxGeometry x="194" y="291.5" width="110" height="30" as="geometry" />
        </mxCell>
        <mxCell id="Ec-df3vdIZZ4H335Q0Bi-56" value="&lt;b&gt;[informations correcte]&lt;/b&gt;" style="text;html=1;align=center;verticalAlign=middle;whiteSpace=wrap;rounded=0;" vertex="1" parent="Ec-df3vdIZZ4H335Q0Bi-47">
          <mxGeometry x="18" y="217" width="124" height="30" as="geometry" />
        </mxCell>
        <mxCell id="Ec-df3vdIZZ4H335Q0Bi-57" value="&lt;b&gt;[informations incorrecte]&lt;/b&gt;" style="text;html=1;align=center;verticalAlign=middle;whiteSpace=wrap;rounded=0;" vertex="1" parent="Ec-df3vdIZZ4H335Q0Bi-47">
          <mxGeometry x="188.63" y="216" width="133.37" height="30" as="geometry" />
        </mxCell>
        <mxCell id="Ec-df3vdIZZ4H335Q0Bi-58" value="" style="rounded=1;whiteSpace=wrap;html=1;" vertex="1" parent="Ec-df3vdIZZ4H335Q0Bi-47">
          <mxGeometry x="15" y="362" width="120" height="37" as="geometry" />
        </mxCell>
        <mxCell id="Ec-df3vdIZZ4H335Q0Bi-84" style="edgeStyle=orthogonalEdgeStyle;rounded=0;orthogonalLoop=1;jettySize=auto;html=1;exitX=0.5;exitY=1;exitDx=0;exitDy=0;" edge="1" parent="Ec-df3vdIZZ4H335Q0Bi-47">
          <mxGeometry relative="1" as="geometry">
            <mxPoint x="74.83333333333348" y="424.19876988728845" as="targetPoint" />
            <mxPoint x="75" y="399" as="sourcePoint" />
          </mxGeometry>
        </mxCell>
        <mxCell id="Ec-df3vdIZZ4H335Q0Bi-59" value="&lt;b&gt;Envoyer un mail de validation&lt;/b&gt;" style="text;html=1;align=center;verticalAlign=middle;whiteSpace=wrap;rounded=0;" vertex="1" parent="Ec-df3vdIZZ4H335Q0Bi-47">
          <mxGeometry x="20" y="366" width="110" height="30" as="geometry" />
        </mxCell>
        <mxCell id="Ec-df3vdIZZ4H335Q0Bi-60" value="" style="rounded=1;whiteSpace=wrap;html=1;" vertex="1" parent="Ec-df3vdIZZ4H335Q0Bi-47">
          <mxGeometry x="16.879999999999995" y="423" width="120" height="35" as="geometry" />
        </mxCell>
        <mxCell id="Ec-df3vdIZZ4H335Q0Bi-61" style="edgeStyle=orthogonalEdgeStyle;rounded=0;orthogonalLoop=1;jettySize=auto;html=1;" edge="1" parent="Ec-df3vdIZZ4H335Q0Bi-47" source="Ec-df3vdIZZ4H335Q0Bi-62">
          <mxGeometry relative="1" as="geometry">
            <mxPoint x="79.88000000000011" y="488.67183685302734" as="targetPoint" />
          </mxGeometry>
        </mxCell>
        <mxCell id="Ec-df3vdIZZ4H335Q0Bi-62" value="&lt;b&gt;Réservation réussie&lt;/b&gt;" style="text;html=1;align=center;verticalAlign=middle;whiteSpace=wrap;rounded=0;" vertex="1" parent="Ec-df3vdIZZ4H335Q0Bi-47">
          <mxGeometry x="24.879999999999995" y="427" width="110" height="30" as="geometry" />
        </mxCell>
        <mxCell id="Ec-df3vdIZZ4H335Q0Bi-63" value="" style="ellipse;html=1;shape=endState;fillColor=#000000;strokeColor=#000000;" vertex="1" parent="Ec-df3vdIZZ4H335Q0Bi-47">
          <mxGeometry x="64.88" y="489.0018673706055" width="30" height="30" as="geometry" />
        </mxCell>
        <mxCell id="Ec-df3vdIZZ4H335Q0Bi-71" value="" style="rounded=1;whiteSpace=wrap;html=1;" vertex="1" parent="Ec-df3vdIZZ4H335Q0Bi-47">
          <mxGeometry x="103.5" y="100" width="120" height="38" as="geometry" />
        </mxCell>
        <mxCell id="Ec-df3vdIZZ4H335Q0Bi-72" value="&lt;b&gt;Afficher formulaire de paiement&lt;/b&gt;" style="text;html=1;align=center;verticalAlign=middle;whiteSpace=wrap;rounded=0;" vertex="1" parent="Ec-df3vdIZZ4H335Q0Bi-47">
          <mxGeometry x="107.5" y="104" width="112.5" height="30" as="geometry" />
        </mxCell>
        <mxCell id="Ec-df3vdIZZ4H335Q0Bi-87" style="edgeStyle=orthogonalEdgeStyle;rounded=0;orthogonalLoop=1;jettySize=auto;html=1;entryX=1;entryY=0.5;entryDx=0;entryDy=0;fontFamily=Helvetica;fontSize=12;fontColor=default;labelBackgroundColor=light-dark(#000000,#000000);exitX=1;exitY=0.5;exitDx=0;exitDy=0;" edge="1" parent="Ec-df3vdIZZ4H335Q0Bi-47" target="Ec-df3vdIZZ4H335Q0Bi-72">
          <mxGeometry relative="1" as="geometry">
            <Array as="points">
              <mxPoint x="310" y="354" />
              <mxPoint x="310" y="120" />
              <mxPoint x="220" y="120" />
            </Array>
            <mxPoint x="250.5" y="120" as="targetPoint" />
            <mxPoint x="258.5" y="354.5" as="sourcePoint" />
          </mxGeometry>
        </mxCell>
        <mxCell id="Ec-df3vdIZZ4H335Q0Bi-89" value="" style="rhombus;whiteSpace=wrap;html=1;fontColor=#000000;fillColor=#FFFFFF;strokeColor=#000000;fillStyle=solid;pointerEvents=0;align=center;verticalAlign=top;fontFamily=Helvetica;fontSize=12;labelBackgroundColor=light-dark(#000000,#000000);" vertex="1" parent="Ec-df3vdIZZ4H335Q0Bi-47">
          <mxGeometry x="240" y="347" width="18" height="15" as="geometry" />
        </mxCell>
        <mxCell id="Ec-df3vdIZZ4H335Q0Bi-69" style="edgeStyle=orthogonalEdgeStyle;rounded=0;orthogonalLoop=1;jettySize=auto;html=1;" edge="1" parent="1">
          <mxGeometry relative="1" as="geometry">
            <mxPoint x="645.8333333333335" y="403.0000000000001" as="targetPoint" />
            <mxPoint x="645.8" y="382" as="sourcePoint" />
          </mxGeometry>
        </mxCell>
        <mxCell id="Ec-df3vdIZZ4H335Q0Bi-79" style="edgeStyle=orthogonalEdgeStyle;rounded=0;orthogonalLoop=1;jettySize=auto;html=1;entryX=0.429;entryY=0.007;entryDx=0;entryDy=0;entryPerimeter=0;" edge="1" parent="1" source="Ec-df3vdIZZ4H335Q0Bi-71" target="Ec-df3vdIZZ4H335Q0Bi-75">
          <mxGeometry relative="1" as="geometry">
            <Array as="points">
              <mxPoint x="561" y="204" />
              <mxPoint x="245" y="204" />
            </Array>
          </mxGeometry>
        </mxCell>
        <mxCell id="Ec-df3vdIZZ4H335Q0Bi-83" style="edgeStyle=orthogonalEdgeStyle;rounded=0;orthogonalLoop=1;jettySize=auto;html=1;entryX=0;entryY=0.25;entryDx=0;entryDy=0;" edge="1" parent="1" source="Ec-df3vdIZZ4H335Q0Bi-81" target="Ec-df3vdIZZ4H335Q0Bi-48">
          <mxGeometry relative="1" as="geometry" />
        </mxCell>
      </root>
    </mxGraphModel>
  </diagram>
</mxfile>
